<?xml version="1.0" encoding="UTF-8"?>
<svg xmlns="http://www.w3.org/2000/svg" xmlns:xlink="http://www.w3.org/1999/xlink" width="0" height="0">
  <defs>
    <symbol viewBox="0 0 24 24" fill="currentColor" id="web">
      <path
        d="M16.36,14C16.44,13.34 16.5,12.68 16.5,12C16.5,11.32 16.44,10.66 16.36,10H19.74C19.9,10.64 20,11.31 20,12C20,12.69 19.9,13.36 19.74,14M14.59,19.56C15.19,18.45 15.65,17.25 15.97,16H18.92C17.96,17.65 16.43,18.93 14.59,19.56M14.34,14H9.66C9.56,13.34 9.5,12.68 9.5,12C9.5,11.32 9.56,10.65 9.66,10H14.34C14.43,10.65 14.5,11.32 14.5,12C14.5,12.68 14.43,13.34 14.34,14M12,19.96C11.17,18.76 10.5,17.43 10.09,16H13.91C13.5,17.43 12.83,18.76 12,19.96M8,8H5.08C6.03,6.34 7.57,5.06 9.4,4.44C8.8,5.55 8.35,6.75 8,8M5.08,16H8C8.35,17.25 8.8,18.45 9.4,19.56C7.57,18.93 6.03,17.65 5.08,16M4.26,14C4.1,13.36 4,12.69 4,12C4,11.31 4.1,10.64 4.26,10H7.64C7.56,10.66 7.5,11.32 7.5,12C7.5,12.68 7.56,13.34 7.64,14M12,4.03C12.83,5.23 13.5,6.57 13.91,8H10.09C10.5,6.57 11.17,5.23 12,4.03M18.92,8H15.97C15.65,6.75 15.19,5.55 14.59,4.44C16.43,5.07 17.96,6.34 18.92,8M12,2C6.47,2 2,6.5 2,12A10,10 0 0,0 12,22A10,10 0 0,0 22,12A10,10 0 0,0 12,2Z"
      ></path>
    </symbol>
    <symbol viewBox="0 0 24 24" fill="currentColor" id="text">
      <path d="M5 3.5a1.5 1.5 0 1 0 0 3h5.5V20a1.5 1.5 0 0 0 3 0V6.5H19a1.5 1.5 0 0 0 0-3H5Z"></path>
    </symbol>
    <symbol viewBox="0 0 24 24" fill="currentColor" id="tag">
      <path
        d="M5.5,7A1.5,1.5 0 0,1 4,5.5A1.5,1.5 0 0,1 5.5,4A1.5,1.5 0 0,1 7,5.5A1.5,1.5 0 0,1 5.5,7M21.41,11.58L12.41,2.58C12.05,2.22 11.55,2 11,2H4C2.89,2 2,2.89 2,4V11C2,11.55 2.22,12.05 2.59,12.41L11.58,21.41C11.95,21.77 12.45,22 13,22C13.55,22 14.05,21.77 14.41,21.41L21.41,14.41C21.78,14.05 22,13.55 22,13C22,12.44 21.77,11.94 21.41,11.58Z"
      ></path>
    </symbol>
    <symbol viewBox="0 0 24 24" fill="currentColor" id="star">
      <path
        d="M12,17.27L18.18,21L16.54,13.97L22,9.24L14.81,8.62L12,2L9.19,8.62L2,9.24L7.45,13.97L5.82,21L12,17.27Z"
      ></path>
    </symbol>
    <symbol viewBox="0 0 24 24" fill="currentColor" id="star-outline">
      <path
        d="M12,15.39L8.24,17.66L9.23,13.38L5.91,10.5L10.29,10.13L12,6.09L13.71,10.13L18.09,10.5L14.77,13.38L15.76,17.66M22,9.24L14.81,8.63L12,2L9.19,8.63L2,9.24L7.45,13.97L5.82,21L12,17.27L18.18,21L16.54,13.97L22,9.24Z"
      ></path>
    </symbol>
    <symbol viewBox="0 0 24 24" fill="currentColor" id="square-outline">
      <path d="M3,3H21V21H3V3M5,5V19H19V5H5Z"></path>
    </symbol>
    <symbol viewBox="0 0 24 24" fill="currentColor" id="sort">
      <path d="M18 21L14 17H17V7H14L18 3L22 7H19V17H22M2 19V17H12V19M2 13V11H9V13M2 7V5H6V7H2Z"></path>
    </symbol>
    <symbol viewBox="0 0 24 24" fill="currentColor" id="share-variant">
      <path
        d="M18,16.08C17.24,16.08 16.56,16.38 16.04,16.85L8.91,12.7C8.96,12.47 9,12.24 9,12C9,11.76 8.96,11.53 8.91,11.3L15.96,7.19C16.5,7.69 17.21,8 18,8A3,3 0 0,0 21,5A3,3 0 0,0 18,2A3,3 0 0,0 15,5C15,5.24 15.04,5.47 15.09,5.7L8.04,9.81C7.5,9.31 6.79,9 6,9A3,3 0 0,0 3,12A3,3 0 0,0 6,15C6.79,15 7.5,14.69 8.04,14.19L15.16,18.34C15.11,18.55 15.08,18.77 15.08,19C15.08,20.61 16.39,21.91 18,21.91C19.61,21.91 20.92,20.61 20.92,19A2.92,2.92 0 0,0 18,16.08Z"
      ></path>
    </symbol>
    <symbol viewBox="0 0 24 24" fill="currentColor" id="restore">
      <path
        d="M13,3A9,9 0 0,0 4,12H1L4.89,15.89L4.96,16.03L9,12H6A7,7 0 0,1 13,5A7,7 0 0,1 20,12A7,7 0 0,1 13,19C11.07,19 9.32,18.21 8.06,16.94L6.64,18.36C8.27,20 10.5,21 13,21A9,9 0 0,0 22,12A9,9 0 0,0 13,3Z"
      ></path>
    </symbol>
    <symbol viewBox="0 0 24 24" fill="currentColor" id="rectangle-outline">
      <path d="M4,6V19H20V6H4M18,17H6V8H18V17Z"></path>
    </symbol>
    <symbol viewBox="0 0 24 24" fill="currentColor" id="plus">
      <path d="M19,13H13V19H11V13H5V11H11V5H13V11H19V13Z"></path>
    </symbol>
    <symbol viewBox="0 0 24 24" fill="currentColor" id="playlist-plus">
      <path d="M3 16H10V14H3M18 14V10H16V14H12V16H16V20H18V16H22V14M14 6H3V8H14M14 10H3V12H14V10Z"></path>
    </symbol>
    <symbol viewBox="0 0 24 24" fill="currentColor" id="playlist-minus">
      <path d="M3 16H10V14H3M12 14V16H22V14M14 6H3V8H14M14 10H3V12H14V10Z"></path>
    </symbol>
    <symbol viewBox="0 0 24 24" fill="currentColor" id="pin">
      <path d="M16,12V4H17V2H7V4H8V12L6,14V16H11.2V22H12.8V16H18V14L16,12Z"></path>
    </symbol>
    <symbol viewBox="0 0 24 24" fill="currentColor" id="pin-off">
      <path
        d="M2,5.27L3.28,4L20,20.72L18.73,22L12.8,16.07V22H11.2V16H6V14L8,12V11.27L2,5.27M16,12L18,14V16H17.82L8,6.18V4H7V2H17V4H16V12Z"
      ></path>
    </symbol>
    <symbol viewBox="0 0 24 24" fill="currentColor" id="pencil">
      <path
        d="M20.71,7.04C21.1,6.65 21.1,6 20.71,5.63L18.37,3.29C18,2.9 17.35,2.9 16.96,3.29L15.12,5.12L18.87,8.87M3,17.25V21H6.75L17.81,9.93L14.06,6.18L3,17.25Z"
      ></path>
    </symbol>
    <symbol viewBox="0 0 24 24" fill="currentColor" id="notion">
      <path
        d="m17.94 2.434.19.117 1.98 1.32a2 2 0 0 1 .883 1.498l.007.166v12.539a2 2 0 0 1-1.692 1.976l-.155.018-11.529.887a2 2 0 0 1-1.646-.663l-.107-.131L3.6 17.133a3 3 0 0 1-.592-1.584L3 15.333V4.926A2 2 0 0 1 4.692 2.95l.155-.018 11.388-.876a3 3 0 0 1 1.704.378ZM19 7.08 8 7.926V18.92l11-.846V7.08ZM16 8.5a1 1 0 0 1 1 1v7a1 1 0 0 1-1 1h-.5a1 1 0 0 1-.852-.476L12 12.72V17a1 1 0 1 1-2 0v-7a1 1 0 0 1 1-1h.5a1 1 0 0 1 .852.476L15 13.779V9.5a1 1 0 0 1 1-1Zm.388-4.45-10.143.78 1.137 1.137 10.998-.845-1.36-.907a1 1 0 0 0-.632-.165Z"
      ></path>
    </symbol>
    <symbol viewBox="0 0 24 24" fill="currentColor" id="markdown">
      <path
        d="M20 5a2 2 0 0 1 1.995 1.85L22 7v10a2 2 0 0 1-1.85 1.995L20 19H4a2 2 0 0 1-1.995-1.85L2 17V7a2 2 0 0 1 1.85-1.995L4 5h16ZM6.833 9H6a1 1 0 0 0-1 1v4a1 1 0 1 0 2 0v-1.64l.626 1.126a1 1 0 0 0 1.748 0L10 12.359V14a1 1 0 1 0 2 0v-4a1 1 0 0 0-1-1h-.833a1 1 0 0 0-.874.514L8.5 10.941l-.793-1.427A1 1 0 0 0 6.833 9ZM16 9a1 1 0 0 0-.993.883L15 10v1.634a1 1 0 0 0-1.29 1.479l.083.094 1.5 1.5a1 1 0 0 0 1.32.083l.094-.083 1.5-1.5a1 1 0 0 0-1.09-1.631l-.117.058V10a1 1 0 0 0-1-1Z"
      ></path>
    </symbol>
    <symbol viewBox="0 0 24 24" fill="currentColor" id="information-outline">
      <path
        d="M11,9H13V7H11M12,20C7.59,20 4,16.41 4,12C4,7.59 7.59,4 12,4C16.41,4 20,7.59 20,12C20,16.41 16.41,20 12,20M12,2A10,10 0 0,0 2,12A10,10 0 0,0 12,22A10,10 0 0,0 22,12A10,10 0 0,0 12,2M11,17H13V11H11V17Z"
      ></path>
    </symbol>
    <symbol viewBox="0 0 24 24" fill="currentColor" id="import">
      <path
        d="M14,12L10,8V11H2V13H10V16M20,18V6C20,4.89 19.1,4 18,4H6A2,2 0 0,0 4,6V9H6V6H18V18H6V15H4V18A2,2 0 0,0 6,20H18A2,2 0 0,0 20,18Z"
      ></path>
    </symbol>
    <symbol viewBox="0 0 24 24" fill="currentColor" id="image-edit">
      <path
        d="M22.7 14.3L21.7 15.3L19.7 13.3L20.7 12.3C20.8 12.2 20.9 12.1 21.1 12.1C21.2 12.1 21.4 12.2 21.5 12.3L22.8 13.6C22.9 13.8 22.9 14.1 22.7 14.3M13 19.9V22H15.1L21.2 15.9L19.2 13.9L13 19.9M21 5C21 3.9 20.1 3 19 3H5C3.9 3 3 3.9 3 5V19C3 20.1 3.9 21 5 21H11V19.1L12.1 18H5L8.5 13.5L11 16.5L14.5 12L16.1 14.1L21 9.1V5Z"
      ></path>
    </symbol>
    <symbol viewBox="0 0 24 24" fill="currentColor" id="github">
      <path
        d="M12,2A10,10 0 0,0 2,12C2,16.42 4.87,20.17 8.84,21.5C9.34,21.58 9.5,21.27 9.5,21C9.5,20.77 9.5,20.14 9.5,19.31C6.73,19.91 6.14,17.97 6.14,17.97C5.68,16.81 5.03,16.5 5.03,16.5C4.12,15.88 5.1,15.9 5.1,15.9C6.1,15.97 6.63,16.93 6.63,16.93C7.5,18.45 8.97,18 9.54,17.76C9.63,17.11 9.89,16.67 10.17,16.42C7.95,16.17 5.62,15.31 5.62,11.5C5.62,10.39 6,9.5 6.65,8.79C6.55,8.54 6.2,7.5 6.75,6.15C6.75,6.15 7.59,5.88 9.5,7.17C10.29,6.95 11.15,6.84 12,6.84C12.85,6.84 13.71,6.95 14.5,7.17C16.41,5.88 17.25,6.15 17.25,6.15C17.8,7.5 17.45,8.54 17.35,8.79C18,9.5 18.38,10.39 18.38,11.5C18.38,15.32 16.04,16.16 13.81,16.41C14.17,16.72 14.5,17.33 14.5,18.26C14.5,19.6 14.5,20.68 14.5,21C14.5,21.27 14.66,21.59 15.17,21.5C19.14,20.16 22,16.42 22,12A10,10 0 0,0 12,2Z"
      ></path>
    </symbol>
    <symbol viewBox="0 0 24 24" fill="currentColor" id="format-text-variant">
      <path d="M9.6,14L12,7.7L14.4,14M11,5L5.5,19H7.7L8.8,16H15L16.1,19H18.3L13,5H11Z"></path>
    </symbol>
    <symbol viewBox="0 0 24 24" fill="currentColor" id="format-quote-open">
      <path d="M10,7L8,11H11V17H5V11L7,7H10M18,7L16,11H19V17H13V11L15,7H18Z"></path>
    </symbol>
    <symbol viewBox="0 0 24 24" fill="currentColor" id="format-quote-close">
      <path d="M14,17H17L19,13V7H13V13H16M6,17H9L11,13V7H5V13H8L6,17Z"></path>
    </symbol>
    <symbol viewBox="0 0 24 24" fill="currentColor" id="format-font-size-increase">
      <path
        d="M5.12,14L7.5,7.67L9.87,14M6.5,5L1,19H3.25L4.37,16H10.62L11.75,19H14L8.5,5H6.5M18,7L13,12.07L14.41,13.5L17,10.9V17H19V10.9L21.59,13.5L23,12.07L18,7Z"
      ></path>
    </symbol>
    <symbol viewBox="0 0 24 24" fill="currentColor" id="format-font-size-decrease">
      <path
        d="M5.12,14L7.5,7.67L9.87,14M6.5,5L1,19H3.25L4.37,16H10.62L11.75,19H14L8.5,5H6.5M18,17L23,11.93L21.59,10.5L19,13.1V7H17V13.1L14.41,10.5L13,11.93L18,17Z"
      ></path>
    </symbol>
    <symbol viewBox="0 0 24 24" fill="currentColor" id="format-color-highlight">
      <path
        d="M4,17L6.75,14.25L6.72,14.23C6.14,13.64 6.14,12.69 6.72,12.11L11.46,7.37L15.7,11.61L10.96,16.35C10.39,16.93 9.46,16.93 8.87,16.37L8.24,17H4M15.91,2.91C16.5,2.33 17.45,2.33 18.03,2.91L20.16,5.03C20.74,5.62 20.74,6.57 20.16,7.16L16.86,10.45L12.62,6.21L15.91,2.91Z"
      ></path>
    </symbol>
    <symbol viewBox="0 0 24 24" fill="currentColor" id="filter">
      <path
        d="M14,12V19.88C14.04,20.18 13.94,20.5 13.71,20.71C13.32,21.1 12.69,21.1 12.3,20.71L10.29,18.7C10.06,18.47 9.96,18.16 10,17.87V12H9.97L4.21,4.62C3.87,4.19 3.95,3.56 4.38,3.22C4.57,3.08 4.78,3 5,3V3H19V3C19.22,3 19.43,3.08 19.62,3.22C20.05,3.56 20.13,4.19 19.79,4.62L14.03,12H14Z"
      ></path>
    </symbol>
    <symbol viewBox="0 0 24 24" fill="currentColor" id="file-import-line">
      <path
        d="M13.586 2a2 2 0 0 1 1.284.467l.13.119L19.414 7a2 2 0 0 1 .578 1.238l.008.176V20a2 2 0 0 1-1.85 1.995L18 22h-6v-2h6V10h-4.5a1.5 1.5 0 0 1-1.493-1.356L12 8.5V4H6v8H4V4a2 2 0 0 1 1.85-1.995L6 2h7.586ZM7.707 14.465l2.829 2.828a1 1 0 0 1 0 1.414l-2.829 2.828a1 1 0 1 1-1.414-1.414L7.414 19H3a1 1 0 1 1 0-2h4.414l-1.121-1.121a1 1 0 1 1 1.414-1.415ZM14 4.414V8h3.586L14 4.414Z"
      ></path>
    </symbol>
    <symbol viewBox="0 0 24 24" fill="currentColor" id="export">
      <path
        d="M23,12L19,8V11H10V13H19V16M1,18V6C1,4.89 1.9,4 3,4H15A2,2 0 0,1 17,6V9H15V6H3V18H15V15H17V18A2,2 0 0,1 15,20H3A2,2 0 0,1 1,18Z"
      ></path>
    </symbol>
    <symbol viewBox="0 0 24 24" fill="currentColor" id="dropbox">
      <path
        d="M3 6.2L8 9.39L13 6.2L8 3L3 6.2M13 6.2L18 9.39L23 6.2L18 3L13 6.2M3 12.55L8 15.74L13 12.55L8 9.35L3 12.55M18 9.35L13 12.55L18 15.74L23 12.55L18 9.35M8.03 16.8L13.04 20L18.04 16.8L13.04 13.61L8.03 16.8Z"
      ></path>
    </symbol>
    <symbol viewBox="0 0 24 24" fill="currentColor" id="drag">
      <path
        d="M7,19V17H9V19H7M11,19V17H13V19H11M15,19V17H17V19H15M7,15V13H9V15H7M11,15V13H13V15H11M15,15V13H17V15H15M7,11V9H9V11H7M11,11V9H13V11H11M15,11V9H17V11H15M7,7V5H9V7H7M11,7V5H13V7H11M15,7V5H17V7H15Z"
      ></path>
    </symbol>
    <symbol viewBox="0 0 24 24" fill="currentColor" id="dots-vertical">
      <path
        d="M12,16A2,2 0 0,1 14,18A2,2 0 0,1 12,20A2,2 0 0,1 10,18A2,2 0 0,1 12,16M12,10A2,2 0 0,1 14,12A2,2 0 0,1 12,14A2,2 0 0,1 10,12A2,2 0 0,1 12,10M12,4A2,2 0 0,1 14,6A2,2 0 0,1 12,8A2,2 0 0,1 10,6A2,2 0 0,1 12,4Z"
      ></path>
    </symbol>
    <symbol viewBox="0 0 24 24" fill="currentColor" id="delete">
      <path d="M19,4H15.5L14.5,3H9.5L8.5,4H5V6H19M6,19A2,2 0 0,0 8,21H16A2,2 0 0,0 18,19V7H6V19Z"></path>
    </symbol>
    <symbol viewBox="0 0 24 24" fill="currentColor" id="content-copy">
      <path
        d="M19,21H8V7H19M19,5H8A2,2 0 0,0 6,7V21A2,2 0 0,0 8,23H19A2,2 0 0,0 21,21V7A2,2 0 0,0 19,5M16,1H4A2,2 0 0,0 2,3V17H4V3H16V1Z"
      ></path>
    </symbol>
    <symbol viewBox="0 0 24 24" fill="currentColor" id="cog">
      <path
        d="M12,15.5A3.5,3.5 0 0,1 8.5,12A3.5,3.5 0 0,1 12,8.5A3.5,3.5 0 0,1 15.5,12A3.5,3.5 0 0,1 12,15.5M19.43,12.97C19.47,12.65 19.5,12.33 19.5,12C19.5,11.67 19.47,11.34 19.43,11L21.54,9.37C21.73,9.22 21.78,8.95 21.66,8.73L19.66,5.27C19.54,5.05 19.27,4.96 19.05,5.05L16.56,6.05C16.04,5.66 15.5,5.32 14.87,5.07L14.5,2.42C14.46,2.18 14.25,2 14,2H10C9.75,2 9.54,2.18 9.5,2.42L9.13,5.07C8.5,5.32 7.96,5.66 7.44,6.05L4.95,5.05C4.73,4.96 4.46,5.05 4.34,5.27L2.34,8.73C2.21,8.95 2.27,9.22 2.46,9.37L4.57,11C4.53,11.34 4.5,11.67 4.5,12C4.5,12.33 4.53,12.65 4.57,12.97L2.46,14.63C2.27,14.78 2.21,15.05 2.34,15.27L4.34,18.73C4.46,18.95 4.73,19.03 4.95,18.95L7.44,17.94C7.96,18.34 8.5,18.68 9.13,18.93L9.5,21.58C9.54,21.82 9.75,22 10,22H14C14.25,22 14.46,21.82 14.5,21.58L14.87,18.93C15.5,18.67 16.04,18.34 16.56,17.94L19.05,18.95C19.27,19.03 19.54,18.95 19.66,18.73L21.66,15.27C21.78,15.05 21.73,14.78 21.54,14.63L19.43,12.97Z"
      ></path>
    </symbol>
    <symbol viewBox="0 0 24 24" fill="currentColor" id="cloud-arrow-up">
      <path
        d="M13 19C13 19.34 13.04 19.67 13.09 20H6.5C5 20 3.69 19.5 2.61 18.43C1.54 17.38 1 16.09 1 14.58C1 13.28 1.39 12.12 2.17 11.1S4 9.43 5.25 9.15C5.67 7.62 6.5 6.38 7.75 5.43S10.42 4 12 4C13.95 4 15.6 4.68 16.96 6.04C18.32 7.4 19 9.05 19 11C20.15 11.13 21.1 11.63 21.86 12.5C22.37 13.07 22.7 13.71 22.86 14.42C21.82 13.54 20.5 13 19 13C15.69 13 13 15.69 13 19M16 18H18V22H20V18H22L19 15L16 18Z"
      ></path>
    </symbol>
    <symbol viewBox="0 0 24 24" fill="currentColor" id="cloud-arrow-down">
      <path
        d="M13 19C13 19.34 13.04 19.67 13.09 20H6.5C5 20 3.69 19.5 2.61 18.43C1.54 17.38 1 16.09 1 14.58C1 13.28 1.39 12.12 2.17 11.1S4 9.43 5.25 9.15C5.67 7.62 6.5 6.38 7.75 5.43S10.42 4 12 4C13.95 4 15.6 4.68 16.96 6.04C18.32 7.4 19 9.05 19 11C20.15 11.13 21.1 11.63 21.86 12.5C22.37 13.07 22.7 13.71 22.86 14.42C21.82 13.54 20.5 13 19 13C15.69 13 13 15.69 13 19M20 16H18V20H16L19 23L22 20H20V16Z"
      ></path>
    </symbol>
    <symbol viewBox="0 0 24 24" stroke="currentColor" id="close">
      <path d="M4,4L20,20M20,4L4,20" stroke-width="3"></path>
    </symbol>
    <symbol viewBox="0 0 24 24" fill="currentColor" id="close-circle">
      <path
        d="M12,2C17.53,2 22,6.47 22,12C22,17.53 17.53,22 12,22C6.47,22 2,17.53 2,12C2,6.47 6.47,2 12,2M15.59,7L12,10.59L8.41,7L7,8.41L10.59,12L7,15.59L8.41,17L12,13.41L15.59,17L17,15.59L13.41,12L17,8.41L15.59,7Z"
      ></path>
    </symbol>
    <symbol viewBox="0 0 16 16" fill="currentColor" id="chevron-right">
      <path
        d="M5.64645 3.14645C5.45118 3.34171 5.45118 3.65829 5.64645 3.85355L9.79289 8L5.64645 12.1464C5.45118 12.3417 5.45118 12.6583 5.64645 12.8536C5.84171 13.0488 6.15829 13.0488 6.35355 12.8536L10.8536 8.35355C11.0488 8.15829 11.0488 7.84171 10.8536 7.64645L6.35355 3.14645C6.15829 2.95118 5.84171 2.95118 5.64645 3.14645Z"
      ></path>
    </symbol>
    <symbol viewBox="0 0 24 24" fill="currentColor" id="check">
      <path d="M21,7L9,19L3.5,13.5L4.91,12.09L9,16.17L19.59,5.59L21,7Z"></path>
    </symbol>
    <symbol viewBox="0 0 24 24" fill="currentColor" id="card-text">
      <path
        d="M20,20H4A2,2 0 0,1 2,18V6A2,2 0 0,1 4,4H20A2,2 0 0,1 22,6V18A2,2 0 0,1 20,20M5,13V15H16V13H5M5,9V11H19V9H5Z"
      ></path>
    </symbol>
    <symbol viewBox="0 0 24 24" fill="currentColor" id="cancel">
      <path
        d="M12 2C17.5 2 22 6.5 22 12S17.5 22 12 22 2 17.5 2 12 6.5 2 12 2M12 4C10.1 4 8.4 4.6 7.1 5.7L18.3 16.9C19.3 15.5 20 13.8 20 12C20 7.6 16.4 4 12 4M16.9 18.3L5.7 7.1C4.6 8.4 4 10.1 4 12C4 16.4 7.6 20 12 20C13.9 20 15.6 19.4 16.9 18.3Z"
      ></path>
    </symbol>
    <symbol viewBox="0 0 24 24" fill="currentColor" id="bookmarks-line">
      <path
        d="M17 2a3 3 0 0 1 2.995 2.824L20 5v13.018c0 1.182-1.293 1.883-2.275 1.285l-.107-.072-.618-.449v2.236c0 1.182-1.293 1.883-2.275 1.285l-.107-.072-4.118-2.995-4.118 2.995c-.956.696-2.283.062-2.377-1.084L4 21.018V8a3 3 0 0 1 3-3 3 3 0 0 1 2.824-2.995L10 2h7Zm-3 5H7a1 1 0 0 0-.993.883L6 8v12.036l3.618-2.63a1.5 1.5 0 0 1 1.64-.082l.124.081L15 20.036V8a1 1 0 0 0-.883-.993L14 7Zm3-3h-7a1 1 0 0 0-1 1h5a3 3 0 0 1 3 3v8.309l1 .727V5a1 1 0 0 0-1-1Z"
      ></path>
    </symbol>
    <symbol viewBox="0 0 24 24" fill="currentColor" id="bookmark-multiple">
      <path
        d="M15,5A2,2 0 0,1 17,7V23L10,20L3,23V7C3,5.89 3.9,5 5,5H15M9,1H19A2,2 0 0,1 21,3V19L19,18.13V3H7A2,2 0 0,1 9,1Z"
      ></path>
    </symbol>
    <symbol viewBox="0 0 24 24" fill="currentColor" id="book-search">
      <path
        d="M15.5,12C18,12 20,14 20,16.5C20,17.38 19.75,18.21 19.31,18.9L22.39,22L21,23.39L17.88,20.32C17.19,20.75 16.37,21 15.5,21C13,21 11,19 11,16.5C11,14 13,12 15.5,12M15.5,14A2.5,2.5 0 0,0 13,16.5A2.5,2.5 0 0,0 15.5,19A2.5,2.5 0 0,0 18,16.5A2.5,2.5 0 0,0 15.5,14M6,22A2,2 0 0,1 4,20V4C4,2.89 4.9,2 6,2H7V9L9.5,7.5L12,9V2H18A2,2 0 0,1 20,4V11.81C18.83,10.69 17.25,10 15.5,10A6.5,6.5 0 0,0 9,16.5C9,18.81 10.21,20.85 12.03,22H6Z"
      ></path>
    </symbol>
    <symbol viewBox="0 0 24 24" fill="currentColor" id="book-clock-outline">
      <path
        d="M20 11.26V4C20 2.9 19.11 2 18 2H6C4.89 2 4 2.9 4 4V20C4 21.11 4.89 22 6 22H11.11C12.37 23.24 14.09 24 16 24C19.87 24 23 20.87 23 17C23 14.62 21.81 12.53 20 11.26M18 4V10.29C17.37 10.11 16.7 10 16 10C14.93 10 13.91 10.25 13 10.68V4H18M6 4H8V12L10.5 9.75L12.1 11.19C10.23 12.45 9 14.58 9 17C9 18.08 9.25 19.09 9.68 20H6V4M16 22C13.24 22 11 19.76 11 17S13.24 12 16 12 21 14.24 21 17 18.76 22 16 22M16.5 17.25L19.36 18.94L18.61 20.16L15 18V13H16.5V17.25Z"
      ></path>
    </symbol>
    <symbol viewBox="0 0 24 30" id="blue-book">
      <g transform="translate(-4 -1)">
        <path fill="#00a6ed" d="M8 26h19V4a2 2 0 0 0-2-2H8z"></path>
        <path fill="#d3d3d3" d="M6 27h21v2H6z"></path>
        <path fill="#0074ba" d="M6.5 2A1.5 1.5 0 0 0 5 3.5V28h1a1 1 0 0 1 1-1h1V2z"></path>
        <path
          fill="#0074ba"
          d="M6.5 26A1.5 1.5 0 0 0 5 27.5v1A1.5 1.5 0 0 0 6.5 30h19a1.5 1.5 0 0 0 1.415-1H7a1 1 0 1 1 0-2h20v-1z"
        ></path>
      </g>
    </symbol>
    <symbol viewBox="0 0 24 24" fill="currentColor" id="arrow-left">
      <path d="M20,11V13H8L13.5,18.5L12.08,19.92L4.16,12L12.08,4.08L13.5,5.5L8,11H20Z"></path>
    </symbol>
    <symbol viewBox="0 0 24 24" fill="currentColor" id="arrow-expand-vertical">
      <path d="M13,9V15H16L12,19L8,15H11V9H8L12,5L16,9H13M4,2H20V4H4V2M4,20H20V22H4V20Z"></path>
    </symbol>
    <symbol viewBox="0 0 24 24" fill="currentColor" id="archive">
      <path d="M3,3H21V7H3V3M4,8H20V21H4V8M9.5,11A0.5,0.5 0 0,0 9,11.5V13H15V11.5A0.5,0.5 0 0,0 14.5,11H9.5Z"></path>
    </symbol>
    <symbol viewBox="0 0 24 24" fill="currentColor" id="archive-refresh">
      <path
        d="M18.5 12C19 12 19.5 12.07 20 12.18V8H4V21H12.5C12.18 20.23 12 19.39 12 18.5C12 14.91 14.91 12 18.5 12M9 13V11.5C9 11.22 9.22 11 9.5 11H14.5C14.78 11 15 11.22 15 11.5V13H9M21 7H3V3H21V7M18 18.5L19.77 16.73C19.32 16.28 18.69 16 18 16C16.62 16 15.5 17.12 15.5 18.5S16.62 21 18 21C18.82 21 19.54 20.61 20 20H21.71C21.12 21.47 19.68 22.5 18 22.5C15.79 22.5 14 20.71 14 18.5S15.79 14.5 18 14.5C19.11 14.5 20.11 14.95 20.83 15.67L22 14.5V18.5H18Z"
      ></path>
    </symbol>
    <symbol viewBox="0 0 24 24" fill="currentColor" id="alert">
      <path d="M13 14H11V9H13M13 18H11V16H13M1 21H23L12 2L1 21Z"></path>
    </symbol>
  </defs>
</svg>
