<svg xmlns="http://www.w3.org/2000/svg" width="128" height="128">
  <path fill="#8e4739" d="M0 0h128v128H0V0z"/>
  <g fill="#c9a07a">
    <path d="M6 10h112v112H6V10z"/>
    <path d="M12 4h112v112H12V4z" opacity=".5"/>
  </g>
  <path fill="#8e4739" d="M90.735 14.687h-57.47a16.07 9.909 0 0 0-16.07 9.91v78.806a16.074 9.911 0 0 0 16.067 9.911 16.074 9.911 0 0 0 13.12-4.186l15.494-13.5 15.813 13.56a16.068 9.907 0 0 0 29.116-5.784V24.596a16.07 9.909 0 0 0-16.07-9.91v.001zm0 88.717-28.964-24.84-28.506 24.84V24.596h57.47v78.808z"/>
  <path fill="#fff" d="M60.262 33.196 58.926 43.73q-.258 2.127-.532 4.315-.288 2.19-.546 4.192-.258 2.002-.486 3.706-.212 1.691-.364 2.786l2.565-2.301 4.145-3.98q.774-.734 1.518-1.455.744-.734 1.336-1.293.592-.56.956-.946.38-.373.456-.435l14.893-.858q.106-.025.243-.025h.243q.622 0 .622.274 0 .211-.774.945l-11.599 10.62q-.774.697-1.837 1.63-1.047.92-2.353 2.052l5.42 5.273 9.336 8.234q.107.149.334.224.213.074.425.136.198.063.365.137.167.075.167.236 0 .112-.046.175-.06.062-.364.248-.334.212-1.169.61-.82.385-1.943.87-1.108.485-2.369.995-1.26.498-2.444.908-1.184.41-2.186.672-1.002.248-1.564.248-.44 0-.865-.174-.425-.186-.941-.671-.714-.672-1.761-1.741-1.063-1.082-2.277-2.376-1.23-1.293-2.505-2.674-1.275-1.38-2.444-2.636-1.17-1.257-2.126-2.276-.941-1.02-1.457-1.63-.182.15-.365.237-.197.074-.364.186-.167.125-.273.299-.106.161-.106.46 0 .124-.076.684-.076.572-.167 1.343l-.198 1.654q-.121.883-.212 1.654-.091.771-.167 1.331-.076.572-.076.684 0 .212.015.348.03.137.03.262 0 .335-.288.497-.273.174-1.351.41l-9.701 2.587q-.41.125-1.078.299-.668.186-1.306.186-.516 0-.895-.211-.395-.212-.395-.796l4.66-43.753q0-.15-.03-.286-.03-.137-.03-.286 0-.274.273-.497.273-.237 1.275-.448l10.415-2.027q.41-.063 1.078-.274.668-.211 1.29-.211.486 0 .911.174.425.186.425.696 0 .062-.015.125t-.015.124z"/>
</svg>
